<svg xmlns="http://www.w3.org/2000/svg" version="1.1" xmlns:xlink="http://www.w3.org/1999/xlink" xmlns:svgjs="http://svgjs.dev/svgjs" width="1000" height="1000" viewBox="0 0 1000 1000"><rect width="1000" height="1000" fill="#ffffff"></rect><g transform="matrix(0.7,0,0,0.7,150.24901348557938,214.98097165991902)"><svg viewBox="0 0 303 247" data-background-color="#ffffff" preserveAspectRatio="xMidYMid meet" height="815" width="1000" xmlns="http://www.w3.org/2000/svg" xmlns:xlink="http://www.w3.org/1999/xlink"><g id="tight-bounds" transform="matrix(1,0,0,1,-0.10778718494191253,-0.09999999999999432)"><svg viewBox="0 0 303.21556831416 247.2" height="247.2" width="303.21556831416"><g><svg viewBox="0 0 395.52000000000004 322.4522558112795" height="247.2" width="303.21556831416"><g transform="matrix(1,0,0,1,0,239.62779892438138)"><svg viewBox="0 0 395.52000000000004 82.82445688689809" height="82.82445688689809" width="395.52000000000004"><g id="textblocktransform"><svg viewBox="0 0 395.52000000000004 82.82445688689809" height="82.82445688689809" width="395.52000000000004" id="textblock"><g><svg viewBox="0 0 395.52000000000004 82.82445688689809" height="82.82445688689809" width="395.52000000000004"><g transform="matrix(1,0,0,1,0,0)"><svg width="395.52000000000004" viewBox="3.950000047683716 -36.900001525878906 178.58999633789062 37.400001525878906" height="82.82445688689809" data-palette-color="#31c48d"><path d="M16.8-36.9L16.8-36.9Q25.15-36.9 30.58-32.02 36-27.15 36-18.15L36-18.15Q36-12.15 33.4-7.85L33.4-7.85Q28.3 0.5 16.8 0.5L16.8 0.5Q10.45 0.5 7.75-1.4 5.05-3.3 5.05-7.45L5.05-7.45 5.1-30.15Q5.1-32.9 3.95-34.65L3.95-34.65Q10.4-36.9 16.8-36.9ZM16.8-4L16.8-4Q22.35-4 25.8-7.78 29.25-11.55 29.25-18.18 29.25-24.8 25.8-28.6 22.35-32.4 16.8-32.4L16.8-32.4Q14.3-32.4 11.6-31.55L11.6-31.55 11.55-7.1Q11.55-5.5 12.6-4.75 13.65-4 16.8-4ZM57.05-31.95L57.05-31.95 57.05-8.9Q57.05-4.3 54.45-1.9 51.85 0.5 47.92 0.5 44 0.5 41.85-0.9 39.7-2.3 39.7-4.08 39.7-5.85 40.7-6.85L40.7-6.85Q43.3-4.7 46.4-4.7L46.4-4.7Q48.35-4.7 49.47-5.7 50.6-6.7 50.6-8.65L50.6-8.65 50.6-32.1Q50.6-34.3 49.1-34.95L49.1-34.95Q50.65-36.9 52.95-36.9L52.95-36.9Q57.05-36.9 57.05-31.95ZM96-31.95L96-31.95 96-4.35Q96-2.2 97.45-1.45L97.45-1.45Q96 0.5 93.65 0.5L93.65 0.5Q89.55 0.5 89.55-4.5L89.55-4.5 89.55-16.25 72.35-16.25 72.35-4.35Q72.35-2.15 73.85-1.45L73.85-1.45Q72.3 0.5 70 0.5L70 0.5Q65.9 0.5 65.9-4.5L65.9-4.5 65.9-32.1Q65.9-34.3 64.4-34.95L64.4-34.95Q65.85-36.9 68.2-36.9L68.2-36.9Q72.35-36.9 72.35-31.95L72.35-31.95 72.35-20.6 89.55-20.6 89.55-32.1Q89.55-34.3 88.05-34.95L88.05-34.95Q89.5-36.9 91.85-36.9L91.85-36.9Q96-36.9 96-31.95ZM112.94-31.95L112.94-31.95 112.94-4.35Q112.94-2.15 114.44-1.45L114.44-1.45Q112.89 0.5 110.59 0.5L110.59 0.5Q106.49 0.5 106.49-4.5L106.49-4.5 106.49-32.1Q106.49-34.3 104.99-34.95L104.99-34.95Q106.44-36.9 108.79-36.9L108.79-36.9Q112.94-36.9 112.94-31.95ZM133.34-31.7L129.09-31.7 129.09-18.9 133.34-18.9Q137.09-18.9 139.06-20.58 141.04-22.25 141.04-25.3 141.04-28.35 139.06-30.03 137.09-31.7 133.34-31.7L133.34-31.7ZM145.79 0.5L145.79 0.5Q143.79 0.5 142.44-0.4 141.09-1.3 139.39-3.9L139.39-3.9 132.64-14.2 129.09-14.2 129.09-4.35Q129.09-2.15 130.59-1.45L130.59-1.45Q129.04 0.5 126.74 0.5L126.74 0.5Q122.64 0.5 122.64-4.5L122.64-4.5 122.64-31.5Q122.64-33.65 121.09-34.4L121.09-34.4Q122.74-36.45 125.49-36.45L125.49-36.45 133.64-36.45Q139.59-36.45 143.64-33.5 147.69-30.55 147.69-25.3L147.69-25.3Q147.69-21.5 145.49-18.9 143.29-16.3 139.59-15.1L139.59-15.1 146.29-5.6Q147.94-3.3 150.14-2.55L150.14-2.55Q148.64 0.5 145.79 0.5ZM166.64-5.25L166.64-5.25 175.49-5.25Q178.79-5.25 180.99-7.3L180.99-7.3Q182.54-6.25 182.54-4.28 182.54-2.3 181.04-1.15 179.54 0 176.49 0L176.49 0 165.79 0Q161.24 0 159.09-1.9 156.94-3.8 156.94-8.05L156.94-8.05 156.94-31.5Q156.94-33.65 155.39-34.4L155.39-34.4Q157.04-36.45 159.74-36.45L159.74-36.45 176.09-36.45Q182.54-36.45 182.54-32.9L182.54-32.9Q182.54-31.1 180.99-30.1L180.99-30.1Q178.94-31.15 175.49-31.15L175.49-31.15 163.39-31.15 163.39-21.85 171.69-21.85Q175.24-21.85 176.69-21.18 178.14-20.5 178.14-18.73 178.14-16.95 176.69-15.95L176.69-15.95Q175.09-16.6 171.19-16.6L171.19-16.6 163.39-16.6 163.39-8.75Q163.39-6.9 164.16-6.08 164.94-5.25 166.64-5.25Z" opacity="1" transform="matrix(1,0,0,1,0,0)" fill="#31c48d" class="wordmark-text-0" data-fill-palette-color="primary" id="text-0"></path></svg></g></svg></g></svg></g></svg></g><g transform="matrix(1,0,0,1,97.49896702184068,0)"><svg viewBox="0 0 200.52206595631867 200.52206595631867" height="200.52206595631867" width="200.52206595631867"><g><svg></svg></g><g id="icon-0"><svg viewBox="0 0 200.52206595631867 200.52206595631867" height="200.52206595631867" width="200.52206595631867"><g><path d="M0 100.261c0-55.373 44.888-100.261 100.261-100.261 55.373 0 100.261 44.888 100.261 100.261 0 55.373-44.888 100.261-100.261 100.261-55.373 0-100.261-44.888-100.261-100.261zM100.261 193.053c51.248 0 92.792-41.544 92.792-92.792 0-51.248-41.544-92.792-92.792-92.792-51.248 0-92.792 41.544-92.792 92.792 0 51.248 41.544 92.792 92.792 92.792z" data-fill-palette-color="accent" fill="#31c48d" stroke="transparent"></path></g><g transform="matrix(1,0,0,1,43.289248712379916,43.289248712379916)"><svg viewBox="0 0 113.94356853155884 113.94356853155884" height="113.94356853155884" width="113.94356853155884"><g><svg xmlns="http://www.w3.org/2000/svg" xmlns:xlink="http://www.w3.org/1999/xlink" version="1.1" x="0" y="0" viewBox="5 5 90 90" enable-background="new 0 0 100 100" xml:space="preserve" height="113.94356853155884" width="113.94356853155884" class="icon-s-0" data-fill-palette-color="accent" id="s-0"><path fill="#31c48d" d="M95 52c0-12.871-5.692-24.431-14.682-32.318C72.431 10.692 60.871 5 48 5 24.29 5 5 24.29 5 48c0 12.868 5.69 24.426 14.677 32.313C27.564 89.306 39.126 95 52 95c0.084 0 0.166-0.006 0.25-0.006S52.416 95 52.5 95C75.972 95 95 75.972 95 52.5c0-0.084-0.006-0.166-0.006-0.25S95 52.084 95 52zM21.828 73.371c-4.245-5.978-6.77-13.259-6.822-21.121 0.135-20.511 16.732-37.109 37.244-37.244 7.862 0.052 15.144 2.577 21.121 6.822C80.224 28.473 84.5 37.758 84.5 48c0 20.126-16.374 36.5-36.5 36.5C37.758 84.5 28.473 80.224 21.828 73.371zM6 48C6 24.841 24.841 6 48 6c9.858 0 18.926 3.422 26.1 9.13C67.637 11.242 60.076 9 52 9 28.29 9 9 28.29 9 52c0 8.074 2.241 15.633 6.127 22.095C9.421 66.923 6 57.856 6 48zM52 89c-10.08 0-19.227-4.055-25.905-10.615C32.269 82.854 39.838 85.5 48 85.5c20.678 0 37.5-16.822 37.5-37.5 0-8.162-2.646-15.731-7.115-21.905C84.945 32.773 89 41.92 89 52 89 72.402 72.402 89 52 89z" data-fill-palette-color="accent"></path></svg></g></svg></g></svg></g></svg></g><g></g></svg></g><defs></defs></svg><rect width="303.21556831416" height="247.2" fill="none" stroke="none" visibility="hidden"></rect></g></svg></g></svg>